# xmcd CD database file
#
# Track frame offsets:
#	150
#	20135
#	36112
#	50652
#	66627
#	89570
#	104160
#	130917
#	149675
#	177387
#	191335
#	211707
#	226440
#
# Disc length: 3300 seconds
#
# Revision: 2
# Processed by: cddbd v1.5.1PL0 Copyright (c) Steve Scherf et al.
# Submitted via: CDex 1.51
#
DISCID=cd0ce20d
DTITLE=William Clarke - The Hard Way
DYEAR=1996
DGENRE=Blues
TTITLE0=The Boss
TTITLE1=Five Card Hand
TTITLE2=Fishing Blues
TTITLE3=Evil
TTITLE4=Letter from Home
TTITLE5=My Mind is Working Overtime
TTITLE6=Last Monday Morning
TTITLE7=Moten Swing
TTITLE8=Blues is Killing Me
TTITLE9=Don't Treat Me Wrong
TTITLE10=Respect Me, Baby
TTITLE11=Other Side of Town
TTITLE12=Walkin'
EXTD=YEAR: 1996
EXTT0=
EXTT1=
EXTT2=
EXTT3=
EXTT4=
EXTT5=
EXTT6=
EXTT7=
EXTT8=
EXTT9=
EXTT10=
EXTT11=
EXTT12=
PLAYORDER=
